<svg xmlns="http://www.w3.org/2000/svg" viewBox="0 0 141.73 58.51"><defs><style>.cls-1{fill:#ce0e2d;}.cls-2,.cls-5,.cls-7{fill:#ffcd00;}.cls-3,.cls-8{fill:#005cb9;}.cls-4{fill:#aa004f;}.cls-5,.cls-7,.cls-8{stroke:#231f20;stroke-miterlimit:3.86;}.cls-5,.cls-8{stroke-width:0.13px;}.cls-6,.cls-9{fill:#231f20;}.cls-6{fill-rule:evenodd;}.cls-7{stroke-width:0.13px;}</style></defs><title>Stockholm</title><g id="Layer_2" data-name="Layer 2"><g id="Logotyp"><path class="cls-1" d="M22.79,56,14.5,25.55H29V43.78A14.56,14.56,0,0,1,22.79,56Z"/><path class="cls-2" d="M14.5,58.51A14.53,14.53,0,0,1,6.2,56l8.3-30.41L22.79,56A14.52,14.52,0,0,1,14.5,58.51Z"/><path class="cls-3" d="M6.2,56l8.3-30.41H0V43.78A14.59,14.59,0,0,0,6.2,56Z"/><path class="cls-4" d="M1.24,17.6c3.9-3.91,7.59-5.69,13.21-5.69s9.33,2,13.21,5.57l-1,3.85H2L1.24,17.6Z"/><path class="cls-5" d="M17.11,6.83a10.58,10.58,0,0,1,6,2.33,19.24,19.24,0,0,1,4.83,5.56s-.46,1.52-.49,1.53l-2.44-1a15,15,0,0,0-2.63-4.16,8.42,8.42,0,0,0-2.75-2,6.45,6.45,0,0,0-1.41-.25L16.53,7.08l.29-.25Z"/><path class="cls-5" d="M15.67,5.92A23.61,23.61,0,0,1,19.59,9.1a8.74,8.74,0,0,1,2.56,5.81c-.57.15-2.58.69-2.75.06a29.77,29.77,0,0,0-2-5.51,13,13,0,0,0-2.21-3.14c.21-.46.51-.43.49-.4Z"/><path class="cls-5" d="M11.73,6.83A12.87,12.87,0,0,0,5.37,9.15,16.79,16.79,0,0,0,.85,14.29s.44,1.92.42,1.9l2.55-.88a13.77,13.77,0,0,1,2.65-4.44A8.23,8.23,0,0,1,9.29,9c.46-.17,1.39-.36,1.4-.37l1.65-1.77Z"/><path class="cls-5" d="M13.16,6A20.86,20.86,0,0,0,9.37,8.91a11.76,11.76,0,0,0-2.69,5.88s2.56,1,2.71.15a13.14,13.14,0,0,1,1.94-5.48,13.24,13.24,0,0,1,2.38-3.12c-.18-.46-.54-.33-.55-.3Z"/><path class="cls-5" d="M14,6.22a14.28,14.28,0,0,0-.86,2.94A14.62,14.62,0,0,0,13,14.79l2.63.18a19.43,19.43,0,0,0-.12-5.75,27.36,27.36,0,0,0-.67-2.94L14,6.22Z"/><path class="cls-6" d="M11.19,47.93s.27-.35.43-.55.12-.53.43-.55.45-.07.79-.06.66.06.92.06a3.16,3.16,0,0,1,1.65-.06,1.61,1.61,0,0,1,.8.8A2.59,2.59,0,0,0,16.7,47c.14-.22.33-.61.61-.73a.88.88,0,0,0,.43-.43c.09-.18.28-1,.3-1A3.88,3.88,0,0,1,18.47,46,2.61,2.61,0,0,1,18,47l.49-.18a2.87,2.87,0,0,1-.49.92c-.25.12-1.17.28-1.22.49S17.83,50,18,50.68A17.52,17.52,0,0,1,18.35,53a9.31,9.31,0,0,0,.37,1.4c.13.43.73,1.2.67,1.29s-.91-.61-1-.43.31,1.07.3,1.16-.66-.47-.79-.3.14.6,0,.61c-.38,0-1.18-1-1.16-1s-1.55,1.63-1.78,1.53.23-1.11.06-1.16-1.31,1.19-1.52,1,.52-1.31.3-1.47-.77.38-1.53.43c-.26,0-.06-.21-.06-.31l-1-.18A2.93,2.93,0,0,1,12,55a12.94,12.94,0,0,0,1.1-.92,2.82,2.82,0,0,0,1-1c0-.1.49-.26.62-.25s.44-.65.42-.67l-1-1.46-2.94-2.82ZM13,47.81c.08.19.21.35.42.3s.2-.49.19-.48.33-.08.42.12a.68.68,0,0,1-.48.73c-.31,0-.94-.13-.55-.67Z"/><path class="cls-2" d="M2,27.81s.84.34.79.74-.49,1.19-.3,1.28.41-.37.67-.37.7.4.67.55-.42.63-.67.61-.48-.33-.55-.24a1.82,1.82,0,0,0,1.53,1.1,1.61,1.61,0,0,0,1.47-1.1c-.16-.12-.51.29-.74.24A.7.7,0,0,1,4.28,30c0-.27.46-.65.61-.67s.67.53.8.49-.32-.91-.31-1.22a1.57,1.57,0,0,1,.73-.86c.16,0,.73.66.74.73s-.42,1.07-.31,1.1.36-.12.55-.18a1.94,1.94,0,0,1,.92.67c0,.15-.66.6-.79.61s-.54-.2-.62-.18.33,1,1.41,1a1.57,1.57,0,0,0,1.47-1,2.8,2.8,0,0,1-.49.12c-.24,0-.49-.46-.55-.61s.44-.55.61-.55.62.35.67.31a6.29,6.29,0,0,1-.3-1.22,1.56,1.56,0,0,1,.85-.86c.28,0-.15,2-.18,2.75s-.19,2.4-.18,2.39H2.39s-.2-2-.25-2.7S2,27.84,2,27.81Z"/><path class="cls-2" d="M3,33.13H9.17l-.24,1.29A1.73,1.73,0,0,0,7.58,34c-.51,0-1.24.45-1.22.73s0,2.77.06,2.82H5.63l.12-2.82A1.48,1.48,0,0,0,4.28,34a2.22,2.22,0,0,0-1.1.49L3,33.13Z"/><path class="cls-2" d="M7.7,34.17a1.8,1.8,0,0,1,1.17.49l-.06.49c-.16-.07-.69-.52-1.11-.49-.89.06-1.06.78-1.1.37s.62-.83,1.1-.86Z"/><path class="cls-2" d="M4.4,34.23c-.52,0-1.26.39-1.1.61v.31c.19-.07.73-.48,1.1-.49.94.09.93.67,1,.37.26-.49-.54-.82-1-.8Z"/><path class="cls-2" d="M2.39,33.07h.36c.08.62.25,1.66.37,2.63.19,1.62.31,3.16,1,3.73-.45,0-.61.19-.92-.25s-.26-.71-.49-1.09S1,36.21,1.53,34.72a4.33,4.33,0,0,1,.86-1.65Z"/><path class="cls-2" d="M9.79,33.07H9.42c-.1.62-.3,1.66-.43,2.63-.18,1.62-.4,3.16-.86,3.73.4,0,.56.19.86-.25s.27-.71.49-1.09,1.66-2,1.16-3.37a8.14,8.14,0,0,0-.85-1.65Z"/><path class="cls-2" d="M4.16,39.68a2.62,2.62,0,0,0,2,.55,2.3,2.3,0,0,0,1.78-.55l-.19,2.2a3,3,0,0,1-1.77.36,3.15,3.15,0,0,1-1.65-.42l-.12-2.14Z"/><path class="cls-2" d="M3.3,35.58c.52,3.74.81,4.38,2.88,4.4,1.85,0,2.11-.79,2.63-4.59a1.34,1.34,0,0,0-.55-.24.42.42,0,0,1-.43.37c-.25,0-.33-.28-.43-.49a1.94,1.94,0,0,0-.8.61s0,2.13.07,2.08H5.38l.12-2.14a1,1,0,0,0-.73-.49c0,.24-.17.52-.43.49s-.41-.06-.43-.49c-.36,0-.58.46-.61.49Z"/><path class="cls-3" d="M5,38.51H7a2.25,2.25,0,0,1-1,.31,2.12,2.12,0,0,1-1-.31Z"/><path class="cls-2" d="M22.63,27.87h1.59v2.88h2.94V32.4h-3v5.07H27.4a3.55,3.55,0,0,1,.06.8,2.12,2.12,0,0,1-.06.79h-8a2.17,2.17,0,0,1-.06-.73,3,3,0,0,1,.06-.79h3.24v-5.2H19.57V30.75h3.06V27.87Z"/><path class="cls-1" d="M10.22,49.4S9.45,48.66,10,48a2.29,2.29,0,0,1,1.65-.61c.32.55.44,1.1.55,1.16a10.23,10.23,0,0,1,2.2,1.9c.32.36,1.26,1.59.86,2.14a1.2,1.2,0,0,1-1.23.55c-.34,0-1.11-.36-1.52-.37s-1.05-.3-1-.67c0-.11.5.17.91.25a7.57,7.57,0,0,1,1.05.06,2.2,2.2,0,0,0,1.16-.06,10.08,10.08,0,0,0-1.35-.8c-.6-.2-2.16-.65-2.44-.73a4.7,4.7,0,0,1-1.17-.25,5.12,5.12,0,0,1-.49-1.1s.63.77.86.86,2.55.73,2.94.85a3.93,3.93,0,0,1,1.53.62s.43,0-1.53-1.35S11.14,49,10.7,49a.61.61,0,0,0-.48.37Z"/><path class="cls-5" d="M28.76,13.32s-1.64,1.17-1.83,2,.07.88.12,1a3.56,3.56,0,0,0,.06.61l-1.22-.92-1.17,1.22,1.05,1.1,1.4-.73s-.35,2-1.71,2.32c-.66.11-1.27-.65-1.29-.67s-.69.66-1.22.55c-1.31-.34-1.44-2.28-1.44-2.28l1.44.87,1.16-1.1-1-1.1-1.59.68.67-2.08L21,13.5,19.77,15l.83,2-1.44-.9L18,17.41l1.34,1.1,1.47-.91s-.19,2.12-1.59,2.32a1.29,1.29,0,0,1-1.29-.67s-.94.91-1.65.61a2.78,2.78,0,0,1-1.47-2.26l1.47.79,1.11-1-.92-1.1-1.7.66,1.08-1.92L14.48,13.3,12.92,15,14.06,17l-1.69-.64-1,1.1,1.16,1L14,17.6a2.86,2.86,0,0,1-1.47,2.26c-.72.3-1.67-.63-1.65-.61a1.28,1.28,0,0,1-1.28.67C8.2,19.72,8,17.55,8,17.6l1.46.91,1.35-1.1L9.68,16.19,8.16,17l.75-2L7.85,13.46,6.62,14.85l.67,2.08L5.7,16.25l-1,1.1,1.16,1.1,1.47-.85s-.17,1.92-1.47,2.26a1.65,1.65,0,0,1-1.22-.55S4,20.09,3.38,20C2,19.69,1.67,17.67,1.67,17.66L3,18.39l1.1-1.1L2.89,16.07l-1.17,1s.14-.52.19-.73.27-.17.06-1A4.61,4.61,0,0,0,.2,13.26l1.47,8.31,0,3.12,25.65-.05V22l1.41-8.68Z"/><path class="cls-7" d="M1.82,24.08H27c.68,0,.87.22.86.49s-.24.43-.67.43H1.9c-.42,0-.75-.2-.73-.43s.14-.4.56-.49Z"/><path class="cls-5" d="M1.85,21.7H27.23c.52,0,.72.21.74.42s-.34.46-.74.43H1.85c-.4,0-.72-.16-.73-.43s.21-.42.73-.42Z"/><path class="cls-2" d="M22.39,37.23H19.45a4,4,0,0,1,2.94-2.81v2.81Z"/><path class="cls-2" d="M24.47,37.23V34.48a3.76,3.76,0,0,1,2.81,2.75Z"/><path class="cls-2" d="M27.34,39.37a4,4,0,0,1-4,3.06,4,4,0,0,1-4-3.06Z"/><path class="cls-8" d="M13.9,2.94a2,2,0,0,0-1.35,1.34H13.9Z"/><path class="cls-8" d="M14.51,6.92a2,2,0,0,0,1.93-1.48h-3.9A2.06,2.06,0,0,0,14.51,6.92Z"/><path class="cls-8" d="M16.43,4.28a2,2,0,0,0-1.37-1.35V4.28Z"/><path class="cls-5" d="M15.06,2.93V2.08h1V1h-1v-1H13.9l0,1h-1v1h1v.86a2,2,0,0,1,.59-.09A2.12,2.12,0,0,1,15.06,2.93Z"/><path class="cls-5" d="M16.43,4.28H15.06V2.93a2.12,2.12,0,0,0-.57-.08,2,2,0,0,0-.59.09V4.28H12.55a2.35,2.35,0,0,0-.09.6,2.1,2.1,0,0,0,.08.56h3.9a2.1,2.1,0,0,0,.08-.56A2,2,0,0,0,16.43,4.28Z"/><path class="cls-9" d="M36.51,19.4h1.67V29.87h5.34v1.46h-7Z"/><path class="cls-9" d="M50,26h.37v-.15A1.66,1.66,0,0,0,48.52,24a4.35,4.35,0,0,0-2.38.83l-.67-1.2a5.36,5.36,0,0,1,3.19-1A3,3,0,0,1,52,25.92v5.41H50.52v-.81c0-.39,0-.68,0-.68h0a3,3,0,0,1-2.74,1.69,2.67,2.67,0,0,1-2.9-2.6C44.88,26.11,48.59,26,50,26Zm-1.9,4.22a2.59,2.59,0,0,0,2.29-2.72v-.27H50c-1.23,0-3.46.09-3.46,1.62A1.43,1.43,0,0,0,48.13,30.21ZM46.63,19.4H48v1.71H46.63Zm2.82,0H50.8v1.71H49.45Z"/><path class="cls-9" d="M54.67,22.78h1.58v1.13c0,.34,0,.63,0,.63h0a3.47,3.47,0,0,1,3.21-2c2,0,2.94,1.09,2.94,3.27v5.48H60.76v-5.1c0-1.2-.25-2.15-1.62-2.15a2.79,2.79,0,0,0-2.7,2.1,4,4,0,0,0-.14,1.14v4H54.67Z"/><path class="cls-9" d="M65.12,29.11a3.65,3.65,0,0,0,2.45,1c.71,0,1.42-.37,1.42-1.06,0-1.58-4.39-1.25-4.39-4,0-1.55,1.38-2.43,3.09-2.43a3.86,3.86,0,0,1,2.75.94l-.66,1.24A3.13,3.13,0,0,0,67.67,24c-.71,0-1.4.3-1.4,1,0,1.54,4.39,1.2,4.39,4,0,1.42-1.22,2.48-3.09,2.48a4.61,4.61,0,0,1-3.25-1.25Z"/><path class="cls-9" d="M72.85,29.11a3.65,3.65,0,0,0,2.45,1c.71,0,1.42-.37,1.42-1.06,0-1.58-4.39-1.25-4.39-4,0-1.55,1.38-2.43,3.09-2.43a3.83,3.83,0,0,1,2.75.94l-.65,1.24A3.14,3.14,0,0,0,75.4,24c-.71,0-1.4.3-1.4,1,0,1.54,4.39,1.2,4.39,4,0,1.42-1.21,2.48-3.09,2.48a4.6,4.6,0,0,1-3.24-1.25Z"/><path class="cls-9" d="M80.86,24.21H79.75V22.9h1.16V20.43H82.5V22.9h2.06v1.31H82.5V28a1.7,1.7,0,0,0,1.82,1.92,2.19,2.19,0,0,0,.39,0v1.45a3.67,3.67,0,0,1-.57,0,3,3,0,0,1-3.28-3.2Z"/><path class="cls-9" d="M86.42,33.1a1.88,1.88,0,0,0,1,.36A1.78,1.78,0,0,0,89,32.21l.42-1-3.59-8.45h1.84l2.15,5.59c.17.44.32,1,.32,1h0s.14-.57.29-1l2.08-5.61h1.77l-4,10.08a2.93,2.93,0,0,1-2.77,2,3,3,0,0,1-1.66-.52Z"/><path class="cls-9" d="M95.85,22.78h1.59v1.49c0,.35,0,.64,0,.64h0a2.93,2.93,0,0,1,2.7-2.23,3.46,3.46,0,0,1,.43,0v1.62a2.38,2.38,0,0,0-.47,0,2.62,2.62,0,0,0-2.41,2,5.3,5.3,0,0,0-.2,1.54v3.5H95.85Z"/><path class="cls-9" d="M105.94,22.58c2.41,0,3.7,1.79,3.7,4,0,.22,0,.71,0,.71h-6.24a2.8,2.8,0,0,0,2.94,2.82,4.09,4.09,0,0,0,2.54-1l.67,1.2a5.06,5.06,0,0,1-3.31,1.22,4.35,4.35,0,0,1-4.52-4.48A4.18,4.18,0,0,1,105.94,22.58Zm2,3.48a2,2,0,0,0-2.06-2.18,2.44,2.44,0,0,0-2.5,2.18Z"/><path class="cls-9" d="M111.78,19.4h1.64v9.31c0,1,.4,1.22.91,1.22a2.33,2.33,0,0,0,.29,0v1.45a4,4,0,0,1-.54,0c-.93,0-2.3-.26-2.3-2.4Z"/><path class="cls-9" d="M116.8,29.11a3.65,3.65,0,0,0,2.45,1c.71,0,1.42-.37,1.42-1.06,0-1.58-4.4-1.25-4.4-4,0-1.55,1.39-2.43,3.1-2.43a3.86,3.86,0,0,1,2.75.94l-.66,1.24a3.13,3.13,0,0,0-2.11-.76c-.71,0-1.4.3-1.4,1,0,1.54,4.39,1.2,4.39,4,0,1.42-1.22,2.48-3.09,2.48A4.61,4.61,0,0,1,116,30.28Z"/><path class="cls-9" d="M128.07,22.58c2.42,0,3.7,1.79,3.7,4,0,.22-.05.71-.05.71h-6.23a2.79,2.79,0,0,0,2.94,2.82,4.05,4.05,0,0,0,2.53-1l.68,1.2a5.09,5.09,0,0,1-3.31,1.22,4.35,4.35,0,0,1-4.53-4.48A4.18,4.18,0,0,1,128.07,22.58Zm2,3.48A2,2,0,0,0,128,23.88a2.45,2.45,0,0,0-2.5,2.18Z"/><path class="cls-9" d="M134,22.78h1.59v1.13c0,.34,0,.63,0,.63h0a3.47,3.47,0,0,1,3.21-2c2,0,2.94,1.09,2.94,3.27v5.48h-1.64v-5.1c0-1.2-.25-2.15-1.62-2.15a2.79,2.79,0,0,0-2.7,2.1,4,4,0,0,0-.14,1.14v4H134Z"/><path class="cls-9" d="M36.54,47.14a4.71,4.71,0,0,0,3,1.29,1.84,1.84,0,0,0,2.06-1.76c0-2.58-5.77-2-5.77-5.69,0-1.86,1.6-3.33,3.85-3.33a4.9,4.9,0,0,1,3.38,1.2l-.77,1.38a4.17,4.17,0,0,0-2.61-1,2,2,0,0,0-2.17,1.74c0,2.47,5.78,1.81,5.78,5.68,0,1.84-1.42,3.36-3.78,3.36a5.59,5.59,0,0,1-4-1.57Z"/><path class="cls-9" d="M45.72,42.67H44.61V41.35h1.16V38.88h1.59v2.47h2.06v1.32H47.36v3.8a1.7,1.7,0,0,0,1.82,1.92,2.19,2.19,0,0,0,.39,0v1.45a3.67,3.67,0,0,1-.57,0,3,3,0,0,1-3.28-3.2Z"/><path class="cls-9" d="M55.27,41a4.48,4.48,0,1,1-4.61,4.46A4.46,4.46,0,0,1,55.27,41Zm0,7.53a3.06,3.06,0,1,0-2.93-3.07A2.95,2.95,0,0,0,55.27,48.56Z"/><path class="cls-9" d="M66,41a4.34,4.34,0,0,1,3.21,1.25l-.78,1.15a3.46,3.46,0,0,0-2.37-1,2.91,2.91,0,0,0-3,3,3,3,0,0,0,3,3.07,3.88,3.88,0,0,0,2.64-1.15l.66,1.2A4.67,4.67,0,0,1,66,50,4.48,4.48,0,1,1,66,41Z"/><path class="cls-9" d="M71.38,37.85H73v6.52h1.2l2.33-3.14h1.86L75.57,45v0l3.16,4.75H76.82l-2.57-4H73v4H71.38Z"/><path class="cls-9" d="M80.39,37.85H82v4.38c0,.4,0,.71,0,.71h0A3.44,3.44,0,0,1,85.19,41c2,0,2.94,1.1,2.94,3.27v5.48H86.49v-5.1c0-1.2-.25-2.15-1.62-2.15a2.84,2.84,0,0,0-2.71,2.11A4.1,4.1,0,0,0,82,45.78v4H80.39Z"/><path class="cls-9" d="M94.79,41a4.48,4.48,0,1,1-4.61,4.46A4.45,4.45,0,0,1,94.79,41Zm0,7.53a3.06,3.06,0,1,0-2.94-3.07A3,3,0,0,0,94.79,48.56Z"/><path class="cls-9" d="M101.47,37.85h1.64v9.31c0,1,.41,1.22.91,1.22a2.13,2.13,0,0,0,.29,0v1.45a3.84,3.84,0,0,1-.54,0c-.93,0-2.3-.26-2.3-2.4Z"/><path class="cls-9" d="M106.21,41.23h1.59v1.13a5.17,5.17,0,0,1,0,.63h0a3.32,3.32,0,0,1,2.93-2A2.33,2.33,0,0,1,113.3,43h0a3.43,3.43,0,0,1,3-1.94c1.92,0,2.82,1.1,2.82,3.27v5.48h-1.64V44.66c0-1.2-.24-2.15-1.52-2.15a2.67,2.67,0,0,0-2.4,2.18,4.9,4.9,0,0,0-.12,1.19v3.9h-1.64V44.66c0-1.11-.17-2.15-1.48-2.15A2.71,2.71,0,0,0,108,44.76a4.49,4.49,0,0,0-.1,1.12v3.9h-1.64Z"/></g></g></svg>